dataset
version=1
nRows=33
nColumns=39
inDegrees=no
endheader
time	sternoclavicular_r2	sternoclavicular_r3	unrotscap_r3	unrotscap_r2	acromioclavicular_r2	acromioclavicular_r3	acromioclavicular_r1	unrothum_r1	unrothum_r3	unrothum_r2	elv_angle	shoulder_elv	shoulder1_r2	shoulder_rot	elbow_flexion	pro_sup	deviation	flexion	cmc_abduction	cmc_flexion	mp_flexion	ip_flexion	mcp2_flexion	mcp2_abduction	pm2_flexion	md2_flexion	mcp3_flexion	mcp3_abduction	pm3_flexion	md3_flexion	mcp4_flexion	mcp4_abduction	pm4_flexion	md4_flexion	mcp5_flexion	mcp5_abduction	pm5_flexion	md5_flexion
5.260000	-0.023687	-0.268263	0.094328	0.094304	0.073856	0.100904	-0.043667	0.032412	-0.013610	0.106717	0.087671	0.027437	0.146525	0.146525	1.417975	1.287036	0.000000	0.000000	0.000000	0.000000	0.000000	0.000000	0.000000	0.000000	0.000000	0.000000	0.000000	0.000000	0.000000	0.000000	0.000000	0.000000	0.000000	0.000000	0.000000	0.000000	0.000000	0.000000
5.265000	-0.023604	-0.268466	0.094558	0.093930	0.073493	0.100811	-0.043997	0.031838	-0.013688	0.106403	0.087247	0.027437	0.146525	0.146525	1.419998	1.286937	0.000000	0.000000	0.000000	0.000000	0.000000	0.000000	0.000000	0.000000	0.000000	0.000000	0.000000	0.000000	0.000000	0.000000	0.000000	0.000000	0.000000	0.000000	0.000000	0.000000	0.000000	0.000000
5.270000	-0.023520	-0.268670	0.094795	0.093545	0.073120	0.100719	-0.044334	0.031242	-0.013758	0.106081	0.086814	0.027437	0.146525	0.146525	1.422041	1.286838	0.000000	0.000000	0.000000	0.000000	0.000000	0.000000	0.000000	0.000000	0.000000	0.000000	0.000000	0.000000	0.000000	0.000000	0.000000	0.000000	0.000000	0.000000	0.000000	0.000000	0.000000	0.000000
5.275000	-0.023434	-0.268875	0.095039	0.093151	0.072737	0.100626	-0.044679	0.030623	-0.013822	0.105751	0.086372	0.027437	0.146525	0.146525	1.424104	1.286739	0.000000	0.000000	0.000000	0.000000	0.000000	0.000000	0.000000	0.000000	0.000000	0.000000	0.000000	0.000000	0.000000	0.000000	0.000000	0.000000	0.000000	0.000000	0.000000	0.000000	0.000000	0.000000
5.280000	-0.023347	-0.269081	0.095290	0.092746	0.072344	0.100535	-0.045033	0.029982	-0.013879	0.105414	0.085921	0.027437	0.146525	0.146525	1.426184	1.286640	0.000000	0.000000	0.000000	0.000000	0.000000	0.000000	0.000000	0.000000	0.000000	0.000000	0.000000	0.000000	0.000000	0.000000	0.000000	0.000000	0.000000	0.000000	0.000000	0.000000	0.000000	0.000000
5.285000	-0.023257	-0.269287	0.095547	0.092331	0.071940	0.100443	-0.045394	0.029318	-0.013929	0.105068	0.085460	0.027437	0.146525	0.146525	1.428279	1.286542	0.000000	0.000000	0.000000	0.000000	0.000000	0.000000	0.000000	0.000000	0.000000	0.000000	0.000000	0.000000	0.000000	0.000000	0.000000	0.000000	0.000000	0.000000	0.000000	0.000000	0.000000	0.000000
5.290000	-0.023166	-0.269493	0.095812	0.091905	0.071525	0.100352	-0.045763	0.028631	-0.013971	0.104715	0.084989	0.027437	0.146525	0.146525	1.430388	1.286444	0.000000	0.000000	0.000000	0.000000	0.000000	0.000000	0.000000	0.000000	0.000000	0.000000	0.000000	0.000000	0.000000	0.000000	0.000000	0.000000	0.000000	0.000000	0.000000	0.000000	0.000000	0.000000
5.295000	-0.023074	-0.269699	0.096083	0.091469	0.071099	0.100261	-0.046140	0.027921	-0.014006	0.104352	0.084509	0.027437	0.146525	0.146525	1.432507	1.286346	0.000000	0.000000	0.000000	0.000000	0.000000	0.000000	0.000000	0.000000	0.000000	0.000000	0.000000	0.000000	0.000000	0.000000	0.000000	0.000000	0.000000	0.000000	0.000000	0.000000	0.000000	0.000000
5.300000	-0.022979	-0.269905	0.096362	0.091022	0.070662	0.100171	-0.046525	0.027189	-0.014034	0.103982	0.084018	0.027437	0.146525	0.146525	1.434636	1.286249	0.000000	0.000000	0.000000	0.000000	0.000000	0.000000	0.000000	0.000000	0.000000	0.000000	0.000000	0.000000	0.000000	0.000000	0.000000	0.000000	0.000000	0.000000	0.000000	0.000000	0.000000	0.000000
5.305000	-0.022883	-0.270110	0.096647	0.090565	0.070214	0.100082	-0.046917	0.026434	-0.014054	0.103602	0.083517	0.027437	0.146525	0.146525	1.436771	1.286153	0.000000	0.000000	0.000000	0.000000	0.000000	0.000000	0.000000	0.000000	0.000000	0.000000	0.000000	0.000000	0.000000	0.000000	0.000000	0.000000	0.000000	0.000000	0.000000	0.000000	0.000000	0.000000
5.310000	-0.022785	-0.270314	0.096939	0.090096	0.069755	0.099993	-0.047317	0.025656	-0.014066	0.103214	0.083007	0.027437	0.146525	0.146525	1.438911	1.286057	0.000000	0.000000	0.000000	0.000000	0.000000	0.000000	0.000000	0.000000	0.000000	0.000000	0.000000	0.000000	0.000000	0.000000	0.000000	0.000000	0.000000	0.000000	0.000000	0.000000	0.000000	0.000000
5.315000	-0.022685	-0.270518	0.097237	0.089616	0.069285	0.099904	-0.047725	0.024855	-0.014072	0.102816	0.082486	0.027437	0.146525	0.146525	1.441052	1.285963	0.000000	0.000000	0.000000	0.000000	0.000000	0.000000	0.000000	0.000000	0.000000	0.000000	0.000000	0.000000	0.000000	0.000000	0.000000	0.000000	0.000000	0.000000	0.000000	0.000000	0.000000	0.000000
5.320000	-0.022584	-0.270721	0.097543	0.089126	0.068803	0.099817	-0.048141	0.024032	-0.014069	0.102410	0.081955	0.027437	0.146525	0.146525	1.443193	1.285870	0.000000	0.000000	0.000000	0.000000	0.000000	0.000000	0.000000	0.000000	0.000000	0.000000	0.000000	0.000000	0.000000	0.000000	0.000000	0.000000	0.000000	0.000000	0.000000	0.000000	0.000000	0.000000
5.325000	-0.022481	-0.270923	0.097855	0.088623	0.068309	0.099730	-0.048564	0.023186	-0.014059	0.101995	0.081414	0.027437	0.146525	0.146525	1.445331	1.285778	0.000000	0.000000	0.000000	0.000000	0.000000	0.000000	0.000000	0.000000	0.000000	0.000000	0.000000	0.000000	0.000000	0.000000	0.000000	0.000000	0.000000	0.000000	0.000000	0.000000	0.000000	0.000000
5.330000	-0.022376	-0.271123	0.098174	0.088110	0.067804	0.099644	-0.048994	0.022318	-0.014041	0.101570	0.080862	0.027437	0.146525	0.146525	1.447464	1.285687	0.000000	0.000000	0.000000	0.000000	0.000000	0.000000	0.000000	0.000000	0.000000	0.000000	0.000000	0.000000	0.000000	0.000000	0.000000	0.000000	0.000000	0.000000	0.000000	0.000000	0.000000	0.000000
5.335000	-0.022270	-0.271321	0.098500	0.087586	0.067288	0.099559	-0.049432	0.021428	-0.014015	0.101137	0.080300	0.027437	0.146525	0.146525	1.449588	1.285598	0.000000	0.000000	0.000000	0.000000	0.000000	0.000000	0.000000	0.000000	0.000000	0.000000	0.000000	0.000000	0.000000	0.000000	0.000000	0.000000	0.000000	0.000000	0.000000	0.000000	0.000000	0.000000
5.340000	-0.022161	-0.271518	0.098831	0.087050	0.066759	0.099475	-0.049877	0.020516	-0.013982	0.100694	0.079728	0.027437	0.146525	0.146525	1.451702	1.285510	0.000000	0.000000	0.000000	0.000000	0.000000	0.000000	0.000000	0.000000	0.000000	0.000000	0.000000	0.000000	0.000000	0.000000	0.000000	0.000000	0.000000	0.000000	0.000000	0.000000	0.000000	0.000000
5.345000	-0.022052	-0.271712	0.099170	0.086503	0.066219	0.099392	-0.050328	0.019583	-0.013941	0.100241	0.079146	0.027437	0.146525	0.146525	1.453802	1.285425	0.000000	0.000000	0.000000	0.000000	0.000000	0.000000	0.000000	0.000000	0.000000	0.000000	0.000000	0.000000	0.000000	0.000000	0.000000	0.000000	0.000000	0.000000	0.000000	0.000000	0.000000	0.000000
5.350000	-0.021940	-0.271904	0.099514	0.085944	0.065668	0.099310	-0.050787	0.018628	-0.013892	0.099779	0.078554	0.027437	0.146525	0.146525	1.455886	1.285341	0.000000	0.000000	0.000000	0.000000	0.000000	0.000000	0.000000	0.000000	0.000000	0.000000	0.000000	0.000000	0.000000	0.000000	0.000000	0.000000	0.000000	0.000000	0.000000	0.000000	0.000000	0.000000
5.355000	-0.021827	-0.272094	0.099865	0.085375	0.065104	0.099229	-0.051251	0.017653	-0.013835	0.099308	0.077951	0.027437	0.146525	0.146525	1.457952	1.285259	0.000000	0.000000	0.000000	0.000000	0.000000	0.000000	0.000000	0.000000	0.000000	0.000000	0.000000	0.000000	0.000000	0.000000	0.000000	0.000000	0.000000	0.000000	0.000000	0.000000	0.000000	0.000000
5.360000	-0.021712	-0.272281	0.100222	0.084794	0.064529	0.099150	-0.051723	0.016657	-0.013770	0.098827	0.077338	0.027437	0.146525	0.146525	1.459996	1.285179	0.000000	0.000000	0.000000	0.000000	0.000000	0.000000	0.000000	0.000000	0.000000	0.000000	0.000000	0.000000	0.000000	0.000000	0.000000	0.000000	0.000000	0.000000	0.000000	0.000000	0.000000	0.000000
5.365000	-0.021596	-0.272466	0.100584	0.084202	0.063943	0.099071	-0.052200	0.015640	-0.013698	0.098337	0.076715	0.027437	0.146525	0.146525	1.462016	1.285102	0.000000	0.000000	0.000000	0.000000	0.000000	0.000000	0.000000	0.000000	0.000000	0.000000	0.000000	0.000000	0.000000	0.000000	0.000000	0.000000	0.000000	0.000000	0.000000	0.000000	0.000000	0.000000
5.370000	-0.021478	-0.272648	0.100952	0.083599	0.063345	0.098995	-0.052683	0.014604	-0.013617	0.097837	0.076083	0.027437	0.146525	0.146525	1.464009	1.285027	0.000000	0.000000	0.000000	0.000000	0.000000	0.000000	0.000000	0.000000	0.000000	0.000000	0.000000	0.000000	0.000000	0.000000	0.000000	0.000000	0.000000	0.000000	0.000000	0.000000	0.000000	0.000000
5.375000	-0.021359	-0.272826	0.101326	0.082985	0.062735	0.098919	-0.053172	0.013549	-0.013529	0.097329	0.075440	0.027437	0.146525	0.146525	1.465972	1.284954	0.000000	0.000000	0.000000	0.000000	0.000000	0.000000	0.000000	0.000000	0.000000	0.000000	0.000000	0.000000	0.000000	0.000000	0.000000	0.000000	0.000000	0.000000	0.000000	0.000000	0.000000	0.000000
5.380000	-0.021238	-0.273001	0.101705	0.082360	0.062115	0.098846	-0.053666	0.012475	-0.013433	0.096810	0.074788	0.027437	0.146525	0.146525	1.467904	1.284884	0.000000	0.000000	0.000000	0.000000	0.000000	0.000000	0.000000	0.000000	0.000000	0.000000	0.000000	0.000000	0.000000	0.000000	0.000000	0.000000	0.000000	0.000000	0.000000	0.000000	0.000000	0.000000
5.385000	-0.021116	-0.273173	0.102090	0.081724	0.061483	0.098774	-0.054165	0.011382	-0.013329	0.096283	0.074126	0.027437	0.146525	0.146525	1.469800	1.284817	0.000000	0.000000	0.000000	0.000000	0.000000	0.000000	0.000000	0.000000	0.000000	0.000000	0.000000	0.000000	0.000000	0.000000	0.000000	0.000000	0.000000	0.000000	0.000000	0.000000	0.000000	0.000000
5.390000	-0.020993	-0.273341	0.102479	0.081078	0.060840	0.098703	-0.054669	0.010272	-0.013217	0.095746	0.073456	0.027437	0.146525	0.146525	1.471659	1.284753	0.000000	0.000000	0.000000	0.000000	0.000000	0.000000	0.000000	0.000000	0.000000	0.000000	0.000000	0.000000	0.000000	0.000000	0.000000	0.000000	0.000000	0.000000	0.000000	0.000000	0.000000	0.000000
5.395000	-0.020868	-0.273506	0.102873	0.080422	0.060186	0.098635	-0.055178	0.009145	-0.013097	0.095200	0.072776	0.027437	0.146525	0.146525	1.473477	1.284692	0.000000	0.000000	0.000000	0.000000	0.000000	0.000000	0.000000	0.000000	0.000000	0.000000	0.000000	0.000000	0.000000	0.000000	0.000000	0.000000	0.000000	0.000000	0.000000	0.000000	0.000000	0.000000
5.400000	-0.020742	-0.273666	0.103272	0.079755	0.059521	0.098568	-0.055691	0.008001	-0.012969	0.094645	0.072087	0.027437	0.146525	0.146525	1.475253	1.284633	0.000000	0.000000	0.000000	0.000000	0.000000	0.000000	0.000000	0.000000	0.000000	0.000000	0.000000	0.000000	0.000000	0.000000	0.000000	0.000000	0.000000	0.000000	0.000000	0.000000	0.000000	0.000000
5.405000	-0.020615	-0.273823	0.103675	0.079078	0.058846	0.098504	-0.056207	0.006840	-0.012833	0.094081	0.071390	0.027437	0.146525	0.146525	1.476984	1.284578	0.000000	0.000000	0.000000	0.000000	0.000000	0.000000	0.000000	0.000000	0.000000	0.000000	0.000000	0.000000	0.000000	0.000000	0.000000	0.000000	0.000000	0.000000	0.000000	0.000000	0.000000	0.000000
5.410000	-0.020486	-0.273976	0.104082	0.078391	0.058160	0.098441	-0.056728	0.005665	-0.012690	0.093509	0.070684	0.027437	0.146525	0.146525	1.478666	1.284527	0.000000	0.000000	0.000000	0.000000	0.000000	0.000000	0.000000	0.000000	0.000000	0.000000	0.000000	0.000000	0.000000	0.000000	0.000000	0.000000	0.000000	0.000000	0.000000	0.000000	0.000000	0.000000
5.415000	-0.020357	-0.274124	0.104493	0.077695	0.057464	0.098381	-0.057251	0.004475	-0.012539	0.092928	0.069970	0.027437	0.146525	0.146525	1.480299	1.284478	0.000000	0.000000	0.000000	0.000000	0.000000	0.000000	0.000000	0.000000	0.000000	0.000000	0.000000	0.000000	0.000000	0.000000	0.000000	0.000000	0.000000	0.000000	0.000000	0.000000	0.000000	0.000000
5.420000	-0.020226	-0.274268	0.104908	0.076989	0.056759	0.098322	-0.057777	0.003270	-0.012380	0.092338	0.069248	0.027437	0.146525	0.146525	1.481879	1.284433	0.000000	0.000000	0.000000	0.000000	0.000000	0.000000	0.000000	0.000000	0.000000	0.000000	0.000000	0.000000	0.000000	0.000000	0.000000	0.000000	0.000000	0.000000	0.000000	0.000000	0.000000	0.000000
